<svg width="180" height="188" viewBox="0 0 180 188" fill="none" xmlns="http://www.w3.org/2000/svg">
<path d="M0 0V92.8571L22.5 74.2857H45V18.5714H112.5V0H0ZM67.5 37.1429V111.429H157.5L180 130V37.1429H67.5Z" fill="url(#paint0_linear_304_186)"/>
<path d="M2.4 152.96C2.4 139.72 7.24 133.1 16.92 133.1C19.96 133.1 23.08 133.58 26.28 134.54L27.84 135.02V143.72H21.6V139.28C20.16 138.96 18.8 138.76 17.52 138.68H16.92C14.2 138.68 12.16 139.74 10.8 141.86C9.44 143.98 8.76 147.68 8.76 152.96C8.84 159.2 9.56 163.32 10.92 165.32C11.64 166.36 12.46 167.08 13.38 167.48C14.3 167.84 15.48 168.02 16.92 168.02C20.2 168.1 23.48 167.62 26.76 166.58L27.84 171.8C26.52 172.24 24.72 172.64 22.44 173C20.2 173.4 18.34 173.6 16.86 173.6C11.98 173.68 8.34 172.12 5.94 168.92C3.58 165.68 2.4 160.36 2.4 152.96ZM39.54 152V173H33.36V132.98H39.54V146.18C42.78 144.74 45.32 144.02 47.16 144.02C50.6 144.02 53.02 145.02 54.42 147.02C55.86 149.02 56.58 151.94 56.58 155.78V173H50.4V155.66C50.4 153.98 50.06 152.6 49.38 151.52C48.74 150.4 47.88 149.84 46.8 149.84C44.84 149.84 42.42 150.56 39.54 152ZM72.96 167.84C74.08 167.84 75.32 167.58 76.68 167.06C78.04 166.54 79.12 165.96 79.92 165.32V161.12C77.52 160.92 75.56 160.82 74.04 160.82C70.72 160.82 69.06 162.06 69.06 164.54C69.06 166.74 70.36 167.84 72.96 167.84ZM72 173.66C65.6 173.66 62.4 170.62 62.4 164.54C62.4 161.3 63.42 159.04 65.46 157.76C67.54 156.44 70.4 155.78 74.04 155.78C75.76 155.78 77.72 155.88 79.92 156.08C79.92 153.68 79.58 152.04 78.9 151.16C78.22 150.28 77.04 149.84 75.36 149.84C73.68 149.84 71.72 150.04 69.48 150.44C67.24 150.84 65.52 151.24 64.32 151.64L63.18 145.94C67.38 144.66 71.48 144.02 75.48 144.02C79.48 144.02 82.24 144.9 83.76 146.66C85.32 148.42 86.1 151.4 86.1 155.6V167.78L86.76 173.06L80.58 173.66L79.98 170.9C76.62 172.74 73.96 173.66 72 173.66ZM93.54 150.02V144.5H98.4V137.66L104.58 137.06V144.5H115.8V150.02H104.58V162.02C104.58 164.22 104.8 165.78 105.24 166.7C105.68 167.58 106.58 168.02 107.94 168.02C110.3 168.02 113.06 167.64 116.22 166.88L117.24 172.22C113.76 173.14 110.66 173.6 107.94 173.6C104.1 173.6 101.54 172.74 100.26 171.02C99.02 169.3 98.4 166.3 98.4 162.02V150.02H93.54ZM123.54 150.02V144.5H128.4V137.66L134.58 137.06V144.5H145.8V150.02H134.58V162.02C134.58 164.22 134.8 165.78 135.24 166.7C135.68 167.58 136.58 168.02 137.94 168.02C140.3 168.02 143.06 167.64 146.22 166.88L147.24 172.22C143.76 173.14 140.66 173.6 137.94 173.6C134.1 173.6 131.54 172.74 130.26 171.02C129.02 169.3 128.4 166.3 128.4 162.02V150.02H123.54ZM152.34 144.5H158.88L165.12 164.9H165.6L171.54 144.5H178.02L167.4 177.86C166.4 180.98 165.12 182.98 163.56 183.86C162.04 184.78 159.28 185.28 155.28 185.36V179.84C157.2 179.76 158.64 179.48 159.6 179C160.6 178.56 161.26 177.8 161.58 176.72L162.24 174.62L152.34 144.5Z" fill="url(#paint1_linear_304_186)"/>
<defs>
<linearGradient id="paint0_linear_304_186" x1="90" y1="0" x2="90" y2="130" gradientUnits="userSpaceOnUse">
<stop stop-color="#01DFE9"/>
<stop offset="1" stop-color="#004E52"/>
</linearGradient>
<linearGradient id="paint1_linear_304_186" x1="90" y1="128" x2="90" y2="188" gradientUnits="userSpaceOnUse">
<stop stop-color="#01DFE9"/>
<stop offset="1" stop-color="#004E52"/>
</linearGradient>
</defs>
</svg>
