<svg width="126" height="130" viewBox="0 0 126 130" fill="none" xmlns="http://www.w3.org/2000/svg">
<path d="M3 0V60L18 48H33V12H78V0H3ZM48 24V72H108L123 84V24H48Z" fill="url(#paint0_linear_304_54)"/>
<path d="M1.68 105.972C1.68 96.704 5.068 92.07 11.844 92.07C13.972 92.07 16.156 92.406 18.396 93.078L19.488 93.414V99.504H15.12V96.396C14.112 96.172 13.16 96.032 12.264 95.976H11.844C9.94 95.976 8.512 96.718 7.56 98.202C6.608 99.686 6.132 102.276 6.132 105.972C6.188 110.34 6.692 113.224 7.644 114.624C8.148 115.352 8.722 115.856 9.366 116.136C10.01 116.388 10.836 116.514 11.844 116.514C14.14 116.57 16.436 116.234 18.732 115.506L19.488 119.16C18.564 119.468 17.304 119.748 15.708 120C14.14 120.28 12.838 120.42 11.802 120.42C8.386 120.476 5.838 119.384 4.158 117.144C2.506 114.876 1.68 111.152 1.68 105.972ZM27.678 105.3V120H23.352V91.986H27.678V101.226C29.946 100.218 31.724 99.714 33.012 99.714C35.42 99.714 37.114 100.414 38.094 101.814C39.102 103.214 39.606 105.258 39.606 107.946V120H35.28V107.862C35.28 106.686 35.042 105.72 34.566 104.964C34.118 104.18 33.516 103.788 32.76 103.788C31.388 103.788 29.694 104.292 27.678 105.3ZM51.072 116.388C51.856 116.388 52.724 116.206 53.676 115.842C54.628 115.478 55.384 115.072 55.944 114.624V111.684C54.264 111.544 52.892 111.474 51.828 111.474C49.504 111.474 48.342 112.342 48.342 114.078C48.342 115.618 49.252 116.388 51.072 116.388ZM50.4 120.462C45.92 120.462 43.68 118.334 43.68 114.078C43.68 111.81 44.394 110.228 45.822 109.332C47.278 108.408 49.28 107.946 51.828 107.946C53.032 107.946 54.404 108.016 55.944 108.156C55.944 106.476 55.706 105.328 55.23 104.712C54.754 104.096 53.928 103.788 52.752 103.788C51.576 103.788 50.204 103.928 48.636 104.208C47.068 104.488 45.864 104.768 45.024 105.048L44.226 101.058C47.166 100.162 50.036 99.714 52.836 99.714C55.636 99.714 57.568 100.33 58.632 101.562C59.724 102.794 60.27 104.88 60.27 107.82V116.346L60.732 120.042L56.406 120.462L55.986 118.53C53.634 119.818 51.772 120.462 50.4 120.462ZM65.478 103.914V100.05H68.88V95.262L73.206 94.842V100.05H81.06V103.914H73.206V112.314C73.206 113.854 73.36 114.946 73.668 115.59C73.976 116.206 74.606 116.514 75.558 116.514C77.21 116.514 79.142 116.248 81.354 115.716L82.068 119.454C79.632 120.098 77.462 120.42 75.558 120.42C72.87 120.42 71.078 119.818 70.182 118.614C69.314 117.41 68.88 115.31 68.88 112.314V103.914H65.478ZM86.478 103.914V100.05H89.88V95.262L94.206 94.842V100.05H102.06V103.914H94.206V112.314C94.206 113.854 94.36 114.946 94.668 115.59C94.976 116.206 95.606 116.514 96.558 116.514C98.21 116.514 100.142 116.248 102.354 115.716L103.068 119.454C100.632 120.098 98.462 120.42 96.558 120.42C93.87 120.42 92.078 119.818 91.182 118.614C90.314 117.41 89.88 115.31 89.88 112.314V103.914H86.478ZM106.638 100.05H111.216L115.584 114.33H115.92L120.078 100.05H124.614L117.18 123.402C116.48 125.586 115.584 126.986 114.492 127.602C113.428 128.246 111.496 128.596 108.696 128.652V124.788C110.04 124.732 111.048 124.536 111.72 124.2C112.42 123.892 112.882 123.36 113.106 122.604L113.568 121.134L106.638 100.05Z" fill="url(#paint1_linear_304_54)"/>
<defs>
<linearGradient id="paint0_linear_304_54" x1="63" y1="0" x2="63" y2="84" gradientUnits="userSpaceOnUse">
<stop stop-color="#01DFE9"/>
<stop offset="1" stop-color="#004E52"/>
</linearGradient>
<linearGradient id="paint1_linear_304_54" x1="63" y1="88" x2="63" y2="130" gradientUnits="userSpaceOnUse">
<stop stop-color="#01DFE9"/>
<stop offset="1" stop-color="#004E52"/>
</linearGradient>
</defs>
</svg>
