<svg width="24" height="24" viewBox="0 0 24 24" fill="none"  xmlns="http://www.w3.org/2000/svg">
<path d="M22.9396 11.7165C22.909 11.6474 22.1679 10.0033 20.5203 8.35562C18.3249 6.16025 15.552 5 12.5 5C9.448 5 6.67512 6.16025 4.47974 8.35562C2.83212 10.0033 2.08749 11.65 2.06037 11.7165C2.02057 11.806 2 11.9029 2 12.0009C2 12.0988 2.02057 12.1957 2.06037 12.2852C2.09099 12.3544 2.83212 13.9976 4.47974 15.6453C6.67512 17.8398 9.448 19 12.5 19C15.552 19 18.3249 17.8398 20.5203 15.6453C22.1679 13.9976 22.909 12.3544 22.9396 12.2852C22.9794 12.1957 23 12.0988 23 12.0009C23 11.9029 22.9794 11.806 22.9396 11.7165ZM12.5 17.6C9.80675 17.6 7.45387 16.6209 5.50612 14.6906C4.70696 13.8958 4.02704 12.9896 3.48749 12C4.02683 11.0103 4.70678 10.104 5.50612 9.30937C7.45387 7.37912 9.80675 6.4 12.5 6.4C15.1933 6.4 17.5461 7.37912 19.4939 9.30937C20.2946 10.1039 20.976 11.0102 21.5169 12C20.886 13.1777 18.1376 17.6 12.5 17.6ZM12.5 9C11 9 10.2859 9.86434 10.2859 9.86434C9.7859 10.3643 9.5 11 9.5 12C9.5 13 9.89088 13.7675 10.2859 14.1625C10.8733 14.7499 12 15 12.5 15C13 15 13.7709 14.8116 14 14.6906C14.3609 14.5 14.5 14.5 14.8003 14.1625C15.1006 13.825 15.5 13 15.5 12C15.5 11 15 10 14.8003 9.86434C13.9947 9.31713 13.6136 9.00116 12.5 9Z" fill="#074245" fill-opacity="0.17"/>
</svg>
